<?xml version="1.0" standalone="no"?>
<svg xmlns="http://www.w3.org/2000/svg" xmlns:xlink="http://www.w3.org/1999/xlink" height="200px" width="1920px">
  <defs>
    <pattern id="doodad" width="50" height="50" viewBox="0 0 40 40" patternUnits="userSpaceOnUse" patternTransform="">
      <rect width="100%" height="100%" fill="rgba(195, 218, 254, 1)"/>
      <path d="M-20 35l20-20l20 20l20-20l20 20l20-20l20 20v-10l-20-20l-20 20l-20-20l-20 20l-20-20l-20 20zM-20-5l20-20l20 20l20-20l20 20l20-20l20 20v-10l-20-20l-20 20l-20-20l-20 20l-20-20l-20 20zM-20 75l20-20l20 20l20-20l20 20l20-20l20 20v-10l-20-20l-20 20l-20-20l-20 20l-20-20l-20 20z " fill="rgba(76, 81, 191,1)"/>
      <path d="M25-20l20 20l-20 20l20 20l-20 20l20 20l-20 20h-10l20-20l-20-20l20-20l-20-20l20-20l-20-20zM-15-20l20 20l-20 20l20 20l-20 20l20 20l-20 20h-10l20-20l-20-20l20-20l-20-20l20-20l-20-20zM65-20l20 20l-20 20l20 20l-20 20l20 20l-20 20h-10l20-20l-20-20l20-20l-20-20l20-20l-20-20z " fill="rgba(104, 211, 145,1)" filter="url(#filter-doodad-2)"/>
    </pattern>
    <filter id="filter-doodad-2">
      <feTurbulence baseFrequency="0 0.01" numOctaves="2" result="result1"/>
      <feDisplacementMap in2="result1" scale="0" result="result2" xChannelSelector="R" yChannelSelector="G" in="SourceGraphic"/>
      <feComposite in2="result2" in="SourceGraphic" operator="atop" result="compositeGraphic"/>
      <feOffset in="compositeGraphic" result="fbSourceGraphic" dy="0"/>
    </filter>
  </defs>
  <rect fill="url(#doodad)" height="200%" width="200%"/>
</svg>
