<?xml version="1.0" standalone="no"?>
<svg xmlns="http://www.w3.org/2000/svg" xmlns:xlink="http://www.w3.org/1999/xlink" height="200px" width="1920px">
  <defs>
    <pattern id="doodad" width="50" height="50" viewBox="0 0 40 40" patternUnits="userSpaceOnUse" patternTransform="">
      <rect width="100%" height="100%" fill="rgba(195, 218, 254,1)"/>
      <path d="M-20 35l20-20l20 20l20-20l20 20l20-20l20 20v-10l-20-20l-20 20l-20-20l-20 20l-20-20l-20 20zM-20-5l20-20l20 20l20-20l20 20l20-20l20 20v-10l-20-20l-20 20l-20-20l-20 20l-20-20l-20 20zM-20 75l20-20l20 20l20-20l20 20l20-20l20 20v-10l-20-20l-20 20l-20-20l-20 20l-20-20l-20 20z " fill="rgba(66, 153, 225,1)"/>
      <path d="M25 0l20 20l-20 20l20 20l-20 20l20 20l-20 20h-10l20-20l-20-20l20-20l-20-20l20-20l-20-20zM-15 0l20 20l-20 20l20 20l-20 20l20 20l-20 20h-10l20-20l-20-20l20-20l-20-20l20-20l-20-20zM65 0l20 20l-20 20l20 20l-20 20l20 20l-20 20h-10l20-20l-20-20l20-20l-20-20l20-20l-20-20z " fill="rgba(76, 81, 191,1)"/>
    </pattern>
  </defs>
  <rect fill="url(#doodad)" height="200%" width="200%"/>
</svg>
